<svg xmlns="http://www.w3.org/2000/svg" xmlns:xlink="http://www.w3.org/1999/xlink" version="1.1" x="0px" y="0px" viewBox="1 0.5 9 11.5" enable-background="new 0 0 10 10" xml:space="preserve"><g><path d="M5,0.954C2.769,0.954,0.953,2.769,0.953,5c0,2.231,1.815,4.046,4.047,4.046S9.047,7.231,9.047,5   C9.047,2.769,7.231,0.954,5,0.954z M5,8.459C3.093,8.459,1.54,6.908,1.541,5c0-1.907,1.552-3.459,3.459-3.459   c1.907,0,3.459,1.552,3.459,3.459C8.459,6.908,6.907,8.459,5,8.459z" fill="#fbc531"/><path d="M5.415,4.954l1.419-1.419C6.889,3.48,6.92,3.406,6.92,3.328c0-0.163-0.131-0.294-0.293-0.294   c-0.078,0-0.152,0.031-0.208,0.086L5,4.539L3.581,3.12c-0.055-0.055-0.13-0.086-0.208-0.086c-0.077,0-0.152,0.031-0.207,0.086   c-0.115,0.114-0.115,0.3,0,0.415l1.419,1.419L3.166,6.373c-0.115,0.115-0.115,0.3,0,0.415c0.114,0.115,0.301,0.115,0.415,0L5,5.369   l1.419,1.419c0.002,0.002,0.005,0.005,0.007,0.007c0.117,0.113,0.303,0.109,0.416-0.007c0.112-0.117,0.109-0.302-0.008-0.415   L5.415,4.954z" fill="#fbc531"/></g></svg>
