<svg xmlns="http://www.w3.org/2000/svg" viewBox="-1 0 72 90" x="0px" y="0px"><title>reset, update</title><g><path d="M57.23,16.55a1.49,1.49,0,0,1-1.48,1.3h-.2l-4.65-.61A24,24,0,1,1,32,8a1.5,1.5,0,0,1,0,3,21,21,0,1,0,16.3,7.77l-.25,5.8A1.5,1.5,0,0,1,46.56,26h-.07a1.48,1.48,0,0,1-1.43-1.56l.4-9.31a.15.15,0,0,1,0-.07.77.77,0,0,1,0-.15l0-.15,0-.06a.14.14,0,0,1,0-.06,1.51,1.51,0,0,1,.09-.18s0,0,0,0l0,0a1.33,1.33,0,0,1,.14-.19l0,0A1.45,1.45,0,0,1,46,14l0,0h0a1.43,1.43,0,0,1,.21-.12l0,0h0l.2-.07.06,0h0l.17,0h.36l8.79,1.17A1.5,1.5,0,0,1,57.23,16.55Z" fill="#fbc531"/></g></svg>
