<svg xmlns="http://www.w3.org/2000/svg" xmlns:xlink="http://www.w3.org/1999/xlink" version="1.1" x="0px" y="0px" viewBox="0 0 100 125" enable-background="new 0 0 100 100" xml:space="preserve"><path d="M66,15C52,1,29.1,1,15,15C1,29.1,1,52,15,66c12.9,12.9,33.1,14,47.2,3.3l4.5,4.5l-1.3,1.3l18.3,18.3c2.6,2.6,6.9,2.6,9.6,0  c2.6-2.6,2.6-6.9,0-9.6L75.1,65.5l-1.3,1.3l-4.5-4.5C80,48.2,78.9,27.9,66,15z M59.1,59.1c-10.2,10.2-26.8,10.2-37,0  c-10.2-10.2-10.2-26.8,0-37c10.2-10.2,26.8-10.2,37,0C69.3,32.3,69.3,48.8,59.1,59.1z M34.2,28.2c1.7,1.7,1.7,4.4,0,6  c-3.5,3.5-3.5,9.1,0,12.6c1.7,1.7,1.7,4.4,0,6c-1.7,1.7-4.4,1.7-6,0c-6.8-6.8-6.8-17.9,0-24.7C29.9,26.5,32.6,26.5,34.2,28.2z" fill="#fbc531" /></svg>
